<svg width="13" height="11" viewBox="0 0 13 11" fill="none" xmlns="http://www.w3.org/2000/svg">
<path d="M2 5.99916L9.90667 5.99916L7.48667 8.90583C7.37351 9.04198 7.31907 9.2175 7.33532 9.39378C7.35157 9.57006 7.43719 9.73267 7.57333 9.84583C7.70948 9.95899 7.885 10.0134 8.06128 9.99718C8.23757 9.98093 8.40017 9.89531 8.51333 9.75916L11.8467 5.75917C11.8691 5.72735 11.8891 5.69392 11.9067 5.65916C11.9067 5.62583 11.9067 5.60583 11.9533 5.5725C11.9836 5.49606 11.9994 5.41469 12 5.3325C11.9994 5.25031 11.9836 5.16894 11.9533 5.0925C11.9533 5.05917 11.9533 5.03917 11.9067 5.00583C11.8891 4.97107 11.8691 4.93765 11.8467 4.90583L8.51333 0.905832C8.45065 0.830577 8.37216 0.770056 8.28344 0.728575C8.19471 0.687094 8.09794 0.665672 8 0.665831C7.84423 0.665527 7.69328 0.719777 7.57333 0.819164C7.50583 0.87513 7.45003 0.943864 7.40913 1.02143C7.36822 1.09899 7.34303 1.18387 7.33498 1.27118C7.32693 1.3585 7.33618 1.44655 7.36221 1.53028C7.38824 1.61402 7.43053 1.6918 7.48667 1.75916L9.90667 4.66583L2 4.66583C1.82319 4.66583 1.65362 4.73607 1.5286 4.86109C1.40357 4.98612 1.33333 5.15569 1.33333 5.3325C1.33333 5.50931 1.40357 5.67888 1.5286 5.8039C1.65362 5.92893 1.82319 5.99916 2 5.99916Z" fill="white" stroke="white"/>
</svg>
