<svg width="32" height="21" viewBox="0 0 32 21" fill="none" xmlns="http://www.w3.org/2000/svg">
<path d="M21 7L28.9677 3.017C29.2345 2.88371 29.5309 2.82079 29.8287 2.83421C30.1266 2.84762 30.4161 2.93693 30.6698 3.09366C30.9235 3.25039 31.1329 3.46933 31.2782 3.72972C31.4235 3.99012 31.4998 4.28332 31.5 4.5815V16.4185C31.4998 16.7167 31.4235 17.0099 31.2782 17.2703C31.1329 17.5307 30.9235 17.7496 30.6698 17.9063C30.4161 18.0631 30.1266 18.1524 29.8287 18.1658C29.5309 18.1792 29.2345 18.1163 28.9677 17.983L21 14V7ZM3.5 21H17.5C18.4283 21 19.3185 20.6313 19.9749 19.9749C20.6313 19.3185 21 18.4283 21 17.5V3.5C21 2.57174 20.6313 1.6815 19.9749 1.02513C19.3185 0.368749 18.4283 0 17.5 0H3.5C2.57174 0 1.6815 0.368749 1.02513 1.02513C0.368749 1.6815 0 2.57174 0 3.5V17.5C0 18.4283 0.368749 19.3185 1.02513 19.9749C1.6815 20.6313 2.57174 21 3.5 21Z" fill="#FE8235"/>
</svg>
