<svg width="34" height="28" viewBox="0 0 34 28" fill="none" xmlns="http://www.w3.org/2000/svg">
<path d="M24.5384 3.96925C22.1062 3.96925 20.123 5.95247 20.123 8.38464C20.123 10.8168 22.1062 12.8 24.5384 12.8C26.9706 12.8 28.9538 10.8168 28.9538 8.38464C28.9538 5.95247 26.9706 3.96925 24.5384 3.96925Z" stroke="#D9D8D8" stroke-width="2.36923"/>
<path d="M13.7691 1.81545C10.7426 1.81545 8.27681 4.28124 8.27681 7.30775C8.27681 10.3343 10.7426 12.8001 13.7691 12.8001C16.7956 12.8001 19.2614 10.3343 19.2614 7.30775C19.2614 4.28124 16.7956 1.81545 13.7691 1.81545Z" stroke="#D9D8D8" stroke-width="2.36923"/>
<path d="M29.5876 14.367L29.5876 14.367C28.006 13.2545 25.8268 12.5847 23.4616 12.5847C21.0963 12.5847 18.9171 13.2545 17.3355 14.367L17.3355 14.367C15.7639 15.4726 14.7385 17.0332 14.7385 18.7825V23.4616V24.6462H15.9231H29.9231C31.1721 24.6462 32.1846 23.6337 32.1846 22.3847V18.7825C32.1846 17.0332 31.1592 15.4726 29.5876 14.367Z" stroke="#D9D8D8" stroke-width="2.36923"/>
<path d="M22.1156 15.5477L22.1156 15.5477C19.9699 14.3737 17.0036 13.6616 13.7692 13.6616C10.5349 13.6616 7.56855 14.3737 5.42285 15.5477L5.42284 15.5477C3.32842 16.6937 1.81538 18.3828 1.81538 20.4165V24.5385C1.81538 25.7875 2.82791 26.8 4.07692 26.8H23.4615C24.7105 26.8 25.7231 25.7875 25.7231 24.5385V20.4165C25.7231 18.3828 24.21 16.6937 22.1156 15.5477Z" fill="white" stroke="#D9D8D8" stroke-width="2.36923"/>
</svg>
