<svg width="30" height="25" viewBox="0 0 30 25" fill="none" xmlns="http://www.w3.org/2000/svg">
<path d="M22.5384 3.15387C20.7605 3.15387 19.3076 4.60671 19.3076 6.38464C19.3076 8.16256 20.7605 9.61541 22.5384 9.61541C24.3163 9.61541 25.7692 8.16256 25.7692 6.38464C25.7692 4.60671 24.3163 3.15387 22.5384 3.15387Z" fill="#FE8235" stroke="#FE8235"/>
<path d="M11.7691 1.00006C9.39686 1.00006 7.46143 2.93548 7.46143 5.30775C7.46143 7.68002 9.39686 9.61545 11.7691 9.61545C14.1414 9.61545 16.0768 7.68002 16.0768 5.30775C16.0768 2.93548 14.1414 1.00006 11.7691 1.00006Z" fill="#FE8235" stroke="#FE8235"/>
<path d="M26.906 13.3359C28.2626 14.2903 29 15.527 29 16.7825V20.3847C29 20.9794 28.5179 21.4616 27.9231 21.4616H13.9231V16.7825C13.9231 15.527 14.6605 14.2903 16.0171 13.3359C17.3737 12.3816 19.3073 11.7693 21.4616 11.7693C23.6158 11.7693 25.5494 12.3816 26.906 13.3359Z" fill="#FE8235" stroke="#FE8235"/>
<path d="M19.547 14.5869C21.485 15.6473 22.5385 17.0215 22.5385 18.4165V22.5385C22.5385 23.1333 22.0563 23.6154 21.4615 23.6154H2.07692C1.48216 23.6154 1 23.1333 1 22.5385V18.4165C1 17.0215 2.0535 15.6473 3.99145 14.5869C5.92941 13.5266 8.69169 12.8462 11.7692 12.8462C14.8468 12.8462 17.6091 13.5266 19.547 14.5869Z" fill="#FE8235" stroke="#FE8235"/>
</svg>
