<svg width="32" height="32" viewBox="0 0 32 32" fill="none" xmlns="http://www.w3.org/2000/svg">
<path d="M29.7253 12.6011L28.8038 13.5181L28.8071 13.5214L29.7253 12.6011ZM21.4081 4.24319L22.3296 3.3262L22.3273 3.32391L21.4081 4.24319ZM10.5919 4.24319L9.67266 3.32391L9.67038 3.3262L10.5919 4.24319ZM2.27474 12.6011L3.19286 13.5215L3.19622 13.5181L2.27474 12.6011ZM2.93451 14.1983V12.8983L2.92776 12.8984L2.93451 14.1983ZM4.34402 14.1983H5.64402V12.8983H4.34402V14.1983ZM4.34402 23.3097H3.04402L3.04402 23.3116L4.34402 23.3097ZM11.0017 30L10.9998 31.3H11.0017V30ZM12.4312 30V31.3001L12.4451 31.2999L12.4312 30ZM13.3609 29.0557H12.0609V29.0558L13.3609 29.0557ZM13.3609 21.3809V20.0809H12.0609V21.3809H13.3609ZM18.6391 21.3809H19.9391V20.0809H18.6391V21.3809ZM18.6391 29.0557L19.9391 29.0558V29.0557H18.6391ZM19.5688 30L19.5549 31.3H19.5688V30ZM20.9983 30V31.3L21.0002 31.3L20.9983 30ZM27.656 23.3097L28.956 23.3116V23.3097H27.656ZM27.656 14.1983V12.8983H26.356V14.1983H27.656ZM29.0655 14.1983L29.0722 12.8983H29.0655V14.1983ZM30.6467 11.6841L22.3296 3.3262L20.4867 5.16018L28.8038 13.5181L30.6467 11.6841ZM22.3273 3.32391C18.8285 -0.174637 13.1715 -0.174637 9.67267 3.32391L11.5111 5.16247C13.9946 2.67918 18.0054 2.67918 20.4889 5.16247L22.3273 3.32391ZM9.67038 3.3262L1.35325 11.6841L3.19622 13.5181L11.5134 5.16018L9.67038 3.3262ZM1.35662 11.6807C0.71551 12.3203 0.524484 13.2833 0.869534 14.1186L3.27259 13.126C3.32818 13.2605 3.29813 13.4164 3.19286 13.5214L1.35662 11.6807ZM0.869534 14.1186C1.215 14.9549 2.0321 15.503 2.94125 15.4983L2.92776 12.8984C3.0819 12.8976 3.21659 12.9904 3.27259 13.126L0.869534 14.1186ZM2.93451 15.4983H4.34402V12.8983H2.93451V15.4983ZM3.04402 14.1983V23.3097H5.64402V14.1983H3.04402ZM3.04402 23.3116C3.05059 27.7148 6.60269 31.2934 10.9998 31.3L11.0037 28.7C8.05142 28.6956 5.64847 26.2899 5.64402 23.3077L3.04402 23.3116ZM11.0017 31.3H12.4312V28.7H11.0017V31.3ZM12.4451 31.2999C13.6786 31.2867 14.661 30.2799 14.6609 29.0556L12.0609 29.0558C12.0609 28.8667 12.214 28.7022 12.4173 28.7001L12.4451 31.2999ZM14.6609 29.0557V21.3809H12.0609V29.0557H14.6609ZM13.3609 22.6809H18.6391V20.0809H13.3609V22.6809ZM17.3391 21.3809V29.0557H19.9391V21.3809H17.3391ZM17.3391 29.0556C17.339 30.2799 18.3214 31.2867 19.5549 31.2999L19.5827 28.7001C19.786 28.7022 19.9391 28.8667 19.9391 29.0558L17.3391 29.0556ZM19.5688 31.3H20.9983V28.7H19.5688V31.3ZM21.0002 31.3C25.3973 31.2934 28.9494 27.7148 28.956 23.3116L26.356 23.3077C26.3515 26.2899 23.9486 28.6956 20.9963 28.7L21.0002 31.3ZM28.956 23.3097V14.1983H26.356V23.3097H28.956ZM27.656 15.4983H29.0655V12.8983H27.656V15.4983ZM29.0587 15.4983C29.9679 15.503 30.785 14.9549 31.1305 14.1186L28.7274 13.126C28.7834 12.9904 28.9181 12.8976 29.0722 12.8984L29.0587 15.4983ZM31.1305 14.1186C31.4755 13.2833 31.2845 12.3203 30.6434 11.6807L28.8071 13.5214C28.7019 13.4164 28.6718 13.2605 28.7274 13.126L31.1305 14.1186Z" fill="#D9D8D8"/>
</svg>
