<svg width="16" height="19" viewBox="0 0 16 19" fill="none" xmlns="http://www.w3.org/2000/svg">
<path d="M9.46094 18.6666H3.1875C2.4584 18.6659 1.75939 18.3847 1.24384 17.8847C0.728283 17.3848 0.438296 16.707 0.4375 16V2.66663C0.438296 1.95962 0.728283 1.28179 1.24384 0.781862C1.75939 0.281933 2.4584 0.000732422 3.1875 -4.00543e-05H9.46094V18.6666ZM12.8125 18.6666H12.0391V-4.00543e-05H12.8125C13.5416 0.000732422 14.2406 0.281933 14.7562 0.781862C15.2717 1.28179 15.5617 1.95962 15.5625 2.66663V16C15.5617 16.707 15.2717 17.3848 14.7562 17.8847C14.2406 18.3847 13.5416 18.6659 12.8125 18.6666Z" fill="#D6CCC6"/>
</svg>
