<svg width="25" height="25" viewBox="0 0 25 25" fill="none" xmlns="http://www.w3.org/2000/svg">
<path fill-rule="evenodd" clip-rule="evenodd" d="M17.6043 1.61953C18.1515 1.07273 18.8934 0.765564 19.667 0.765564C20.4406 0.765564 21.1825 1.07273 21.7297 1.61953L23.5406 3.43044C24.0874 3.97764 24.3946 4.71956 24.3946 5.49314C24.3946 6.26672 24.0874 7.00864 23.5406 7.55583L9.18343 21.913C8.83326 22.2632 8.39971 22.52 7.9228 22.655L2.50176 24.2058C2.28719 24.2671 2.06012 24.2699 1.84411 24.2139C1.62809 24.1579 1.43101 24.0451 1.27329 23.8872C1.11558 23.7293 1.00299 23.5321 0.94719 23.316C0.891395 23.1 0.894433 22.8729 0.955987 22.6584L2.50509 17.239C2.64088 16.7614 2.89628 16.3264 3.24713 15.975L17.6043 1.61787V1.61953ZM19.9622 3.38708C19.9234 3.34826 19.8774 3.31746 19.8268 3.29645C19.7761 3.27543 19.7218 3.26461 19.667 3.26461C19.6122 3.26461 19.5579 3.27543 19.5072 3.29645C19.4566 3.31746 19.4106 3.34826 19.3719 3.38708L17.2675 5.49314L19.667 7.89434L21.7731 5.78828C21.8119 5.74956 21.8427 5.70356 21.8637 5.65291C21.8847 5.60227 21.8955 5.54797 21.8955 5.49314C21.8955 5.4383 21.8847 5.38401 21.8637 5.33336C21.8427 5.28272 21.8119 5.23671 21.7731 5.19799L19.9622 3.38708ZM17.8978 9.66189L15.4983 7.26069L5.01635 17.7443C4.96604 17.7942 4.92931 17.8562 4.90963 17.9244L3.97916 21.181L7.23579 20.2505C7.30395 20.2309 7.36595 20.1942 7.41588 20.1438L17.8978 9.66189Z" fill="white"/>
</svg>
