<svg width="32" height="32" viewBox="0 0 32 32" fill="none" xmlns="http://www.w3.org/2000/svg">
<path d="M24.0003 2.14383C26.4136 3.5372 28.4211 5.53667 29.8241 7.94431C31.2271 10.3519 31.977 13.0843 31.9995 15.8708C32.022 18.6573 31.3163 21.4013 29.9524 23.8313C28.5885 26.2613 26.6135 28.293 24.2231 29.7251C21.8327 31.1573 19.1096 31.9403 16.3236 31.9967C13.5375 32.0531 10.785 31.3809 8.33859 30.0466C5.89217 28.7123 3.83664 26.7623 2.3755 24.3894C0.914351 22.0166 0.0982561 19.3034 0.00800028 16.5182L0 15.9998L0.00800028 15.4814C0.0976063 12.7182 0.901687 10.0254 2.34185 7.66542C3.78202 5.30547 5.80912 3.35895 8.22553 2.01564C10.6419 0.672328 13.3652 -0.0219373 16.1298 0.000528393C18.8944 0.022994 21.606 0.761424 24.0003 2.14383ZM16.0002 17.9198C15.0425 17.9197 14.0943 18.1107 13.2113 18.4816C12.3283 18.8525 11.5282 19.3959 10.8577 20.0798C10.7071 20.2291 10.5877 20.4068 10.5064 20.6026C10.4251 20.7985 10.3836 21.0085 10.3841 21.2206C10.3847 21.4326 10.4274 21.6424 10.5098 21.8378C10.5922 22.0332 10.7126 22.2102 10.864 22.3587C11.0154 22.5071 11.1948 22.624 11.3918 22.7025C11.5888 22.781 11.7994 22.8195 12.0114 22.8159C12.2234 22.8123 12.4326 22.7666 12.6268 22.6814C12.821 22.5963 12.9963 22.4733 13.1426 22.3198C13.515 21.9396 13.9596 21.6375 14.4503 21.4312C14.941 21.225 15.4679 21.1188 16.0002 21.1188C16.5325 21.1188 17.0594 21.225 17.5501 21.4312C18.0408 21.6375 18.4854 21.9396 18.8578 22.3198C19.1564 22.6158 19.5594 22.7823 19.9798 22.7835C20.4002 22.7847 20.8042 22.6203 21.1044 22.326C21.4046 22.0317 21.5769 21.6311 21.584 21.2108C21.5912 20.7904 21.4326 20.3842 21.1427 20.0798C20.4722 19.3959 19.6721 18.8525 18.7891 18.4816C17.9061 18.1107 16.9579 17.9197 16.0002 17.9198ZM11.2161 11.1998L11.0129 11.211C10.6241 11.2573 10.2656 11.4446 10.0056 11.7374C9.74553 12.0302 9.6019 12.4082 9.6019 12.7998C9.6019 13.1914 9.74553 13.5695 10.0056 13.8623C10.2656 14.1551 10.6241 14.3424 11.0129 14.3886L11.2001 14.3998L11.4033 14.3886C11.7922 14.3424 12.1506 14.1551 12.4107 13.8623C12.6707 13.5695 12.8144 13.1914 12.8144 12.7998C12.8144 12.4082 12.6707 12.0302 12.4107 11.7374C12.1506 11.4446 11.7922 11.2573 11.4033 11.211L11.2161 11.1998ZM20.8163 11.1998L20.6131 11.211C20.2242 11.2573 19.8658 11.4446 19.6057 11.7374C19.3456 12.0302 19.202 12.4082 19.202 12.7998C19.202 13.1914 19.3456 13.5695 19.6057 13.8623C19.8658 14.1551 20.2242 14.3424 20.6131 14.3886L20.8003 14.3998L21.0035 14.3886C21.3923 14.3424 21.7508 14.1551 22.0108 13.8623C22.2709 13.5695 22.4145 13.1914 22.4145 12.7998C22.4145 12.4082 22.2709 12.0302 22.0108 11.7374C21.7508 11.4446 21.3923 11.2573 21.0035 11.211L20.8163 11.1998Z" fill="white"/>
</svg>
